<svg xmlns="http://www.w3.org/2000/svg" width="44" height="44" viewBox="0 0 44 44" fill="none">
  <path d="M9.16667 25.6667C11.1917 25.6667 12.8333 24.025 12.8333 22C12.8333 19.975 11.1917 18.3333 9.16667 18.3333C7.14162 18.3333 5.5 19.975 5.5 22C5.5 24.025 7.14162 25.6667 9.16667 25.6667Z" stroke="#F8F8F8" stroke-width="3.5"/>
  <path d="M34.8334 12.8333C36.8584 12.8333 38.5 11.1917 38.5 9.16667C38.5 7.14162 36.8584 5.5 34.8334 5.5C32.8083 5.5 31.1667 7.14162 31.1667 9.16667C31.1667 11.1917 32.8083 12.8333 34.8334 12.8333Z" stroke="#F8F8F8" stroke-width="3.5"/>
  <path d="M34.8334 25.6667C36.8584 25.6667 38.5 24.025 38.5 22C38.5 19.975 36.8584 18.3333 34.8334 18.3333C32.8083 18.3333 31.1667 19.975 31.1667 22C31.1667 24.025 32.8083 25.6667 34.8334 25.6667Z" stroke="#F8F8F8" stroke-width="3.5"/>
  <path d="M34.8334 38.5C36.8584 38.5 38.5 36.8584 38.5 34.8333C38.5 32.8083 36.8584 31.1667 34.8334 31.1667C32.8083 31.1667 31.1667 32.8083 31.1667 34.8333C31.1667 36.8584 32.8083 38.5 34.8334 38.5Z" stroke="#F8F8F8" stroke-width="3.5"/>
  <path d="M31.1666 34.8333H20.1666V9.16667H31.1666M12.8333 22H31.1666" stroke="#F8F8F8" stroke-width="3.5" stroke-linecap="round" stroke-linejoin="round"/>
</svg>