<svg xmlns="http://www.w3.org/2000/svg" width="44" height="44" viewBox="0 0 44 44" fill="none">
  <path d="M34.8333 40.3333H29.3333C28.8139 40.3333 28.3782 40.1573 28.0262 39.8053C27.6742 39.4533 27.4988 39.0182 27.5 38.5C27.5 37.9806 27.676 37.5448 28.028 37.1928C28.38 36.8408 28.8151 36.6654 29.3333 36.6667H34.8333V18.3333H9.16665V23.8333C9.16665 24.3528 8.99065 24.7885 8.63865 25.1405C8.28665 25.4925 7.85154 25.6679 7.33332 25.6667C6.81388 25.6667 6.37815 25.4907 6.02615 25.1387C5.67415 24.7867 5.49876 24.3516 5.49999 23.8333V11C5.49999 9.99166 5.85932 9.12816 6.57799 8.4095C7.29665 7.69083 8.15954 7.33211 9.16665 7.33333H11V5.5C11 4.98055 11.176 4.54483 11.528 4.19283C11.88 3.84083 12.3151 3.66544 12.8333 3.66666C13.3528 3.66666 13.7885 3.84266 14.1405 4.19466C14.4925 4.54666 14.6679 4.98177 14.6667 5.5V7.33333H29.3333V5.5C29.3333 4.98055 29.5093 4.54483 29.8613 4.19283C30.2133 3.84083 30.6484 3.66544 31.1667 3.66666C31.6861 3.66666 32.1218 3.84266 32.4738 4.19466C32.8258 4.54666 33.0012 4.98177 33 5.5V7.33333H34.8333C35.8417 7.33333 36.7052 7.69266 37.4238 8.41133C38.1425 9.13 38.5012 9.99288 38.5 11V36.6667C38.5 37.675 38.1407 38.5385 37.422 39.2572C36.7033 39.9758 35.8404 40.3345 34.8333 40.3333ZM16.8208 36.6667H3.66665C3.14721 36.6667 2.71149 36.4907 2.35949 36.1387C2.00749 35.7867 1.8321 35.3516 1.83332 34.8333C1.83332 34.3139 2.00932 33.8782 2.36132 33.5262C2.71332 33.1742 3.14843 32.9988 3.66665 33H16.8208L13.3833 29.5167C13.0472 29.1806 12.8718 28.7601 12.8572 28.2553C12.8425 27.7506 13.0179 27.3154 13.3833 26.95C13.7194 26.6139 14.1472 26.4458 14.6667 26.4458C15.1861 26.4458 15.6139 26.6139 15.95 26.95L22.55 33.55C22.9167 33.9167 23.1 34.3444 23.1 34.8333C23.1 35.3222 22.9167 35.75 22.55 36.1167L15.95 42.7167C15.6139 43.0528 15.194 43.2288 14.6905 43.2447C14.1869 43.2605 13.7512 43.0845 13.3833 42.7167C13.0472 42.3806 12.8792 41.9528 12.8792 41.4333C12.8792 40.9139 13.0472 40.4861 13.3833 40.15L16.8208 36.6667ZM9.16665 14.6667H34.8333V11H9.16665V14.6667Z" fill="#F8F8F8"/>
</svg>