<?xml version="1.0" encoding="UTF-8"?>
<svg id="_레이어_1" data-name="레이어 1" xmlns="http://www.w3.org/2000/svg" viewBox="0 0 1012.75 1165.35">
  <defs>
    <style>
      .cls-1 {
        fill: #4183c5;
      }

      .cls-1, .cls-2 {
        stroke-width: 0px;
      }

      .cls-2 {
        fill: #f5bc67;
      }
    </style>
  </defs>
  <path class="cls-1" d="m701.43,232.07h-309.56L172.97,13.18c-17.58-17.57-46.08-17.57-63.66,0-17.58,17.58-17.58,46.08,0,63.66l155.24,155.23H45.01c-24.86,0-45.01,20.16-45.01,45.01s20.15,45.01,45.01,45.01h283.2v798.24c0,24.86,20.15,45.01,45.01,45.01s45.01-20.15,45.01-45.01v-422.18c53.89,50.23,127.72,82.21,209.54,85.03-12.09,103.01,23.1,207.07,97.95,281.92,64.65,64.65,150.6,100.25,242.02,100.25h0c23.16,0,42.22-17.5,44.71-39.99.02-.14.05-.28.07-.42.09-.93.1-1.89.14-2.83.02-.59.09-1.17.09-1.77v-601.52c0-158.1-139.66-286.74-311.32-286.74m-283.2,264.65v-174.63h283.2c122.03,0,221.3,88.25,221.3,196.72v259.93c-56.47-52.63-134.81-85.3-221.3-85.3h-13.02c-3.83-.48-7.64-.49-11.35,0h-1.75c-1.67,0-3.27.05-4.83.16l-30.95-.15c-122.03,0-221.3-88.25-221.3-196.72m300.26,287.37c114.07,7.78,204.24,92.72,204.24,196.09v91.1c-50.24-9-96.5-32.97-133.36-69.83-57.48-57.47-83.23-138.33-70.88-217.35"/>
  <path class="cls-2" d="m744.93,564.45c33.56,0,60.76-27.2,60.76-60.76s-27.2-60.76-60.76-60.76-60.77,27.2-60.77,60.76,27.21,60.76,60.77,60.76"/>
</svg>