<svg xmlns="http://www.w3.org/2000/svg" width="32" height="32" viewBox="0 0 32 32" fill="none">
    <path d="M29.83 20L30.17 18L25 17.15V12.77L30.06 11.41L29.55 9.48L24.72 10.77C24.3911 9.52687 23.7997 8.36865 22.9855 7.37334C22.1713 6.37803 21.1533 5.56875 20 5V2H18V4.23C16.6843 3.92331 15.3157 3.92331 14 4.23V2H12V5C10.8432 5.57521 9.82382 6.39272 9.0111 7.39698C8.19838 8.40123 7.61139 9.56869 7.29003 10.82L2.46003 9.48L2.00003 11.41L7.00003 12.77V17.15L1.84003 18L2.16003 20L7.00003 19.18C7.02287 20.414 7.30212 21.6297 7.82003 22.75L3.29003 27.29L4.71003 28.71L8.90003 24.51C9.74157 25.5903 10.8185 26.4643 12.0489 27.0655C13.2793 27.6667 14.6306 27.9792 16 27.9792C17.3694 27.9792 18.7208 27.6667 19.9511 27.0655C21.1815 26.4643 22.2585 25.5903 23.1 24.51L27.29 28.71L28.71 27.29L24.17 22.75C24.6914 21.6305 24.974 20.4147 25 19.18L29.83 20ZM15 25.92C13.3354 25.6797 11.813 24.8482 10.7112 23.5775C9.60943 22.3068 9.002 20.6818 9.00003 19V13H15V25.92ZM9.29003 11C9.71974 9.55396 10.6051 8.28543 11.8142 7.38336C13.0233 6.4813 14.4915 5.99397 16 5.99397C17.5086 5.99397 18.9767 6.4813 20.1859 7.38336C21.395 8.28543 22.2803 9.55396 22.71 11H9.29003ZM23 19C22.9981 20.6818 22.3906 22.3068 21.2888 23.5775C20.1871 24.8482 18.6646 25.6797 17 25.92V13H23V19Z" fill="#F8F8F8"/>
</svg>