<svg xmlns="http://www.w3.org/2000/svg" width="32" height="32" viewBox="0 0 32 32" fill="none">
  <path d="M16 2C13.2311 2 10.5243 2.82109 8.22201 4.35943C5.91973 5.89777 4.12531 8.08427 3.06569 10.6424C2.00606 13.2006 1.72881 16.0155 2.269 18.7313C2.8092 21.447 4.14257 23.9416 6.1005 25.8995C8.05844 27.8574 10.553 29.1908 13.2687 29.731C15.9845 30.2712 18.7994 29.9939 21.3576 28.9343C23.9157 27.8747 26.1022 26.0803 27.6406 23.778C29.1789 21.4757 30 18.7689 30 16C30 12.287 28.525 8.72601 25.8995 6.1005C23.274 3.475 19.713 2 16 2ZM16 25C15.7033 25 15.4133 24.912 15.1666 24.7472C14.92 24.5824 14.7277 24.3481 14.6142 24.074C14.5006 23.7999 14.4709 23.4983 14.5288 23.2074C14.5867 22.9164 14.7296 22.6491 14.9393 22.4393C15.1491 22.2296 15.4164 22.0867 15.7074 22.0288C15.9983 21.9709 16.2999 22.0007 16.574 22.1142C16.8481 22.2277 17.0824 22.42 17.2472 22.6666C17.412 22.9133 17.5 23.2033 17.5 23.5C17.5 23.8978 17.342 24.2794 17.0607 24.5607C16.7794 24.842 16.3978 25 16 25ZM17.142 17.246V19.747H14.892V15H17.017C17.6473 15 18.2518 14.7496 18.6974 14.3039C19.1431 13.8583 19.3935 13.2538 19.3935 12.6235C19.3935 11.9932 19.1431 11.3887 18.6974 10.9431C18.2518 10.4974 17.6473 10.247 17.017 10.247H15.517C14.8874 10.2478 14.2837 10.4983 13.8385 10.9435C13.3933 11.3887 13.1428 11.9924 13.142 12.622V13.26H10.892V12.622C10.8936 11.3961 11.3815 10.221 12.2486 9.35445C13.1157 8.48791 14.2911 8.00079 15.517 8H17.017C18.2307 8.00278 19.3946 8.48263 20.2577 9.33602C21.1207 10.1894 21.6136 11.3479 21.63 12.5615C21.6464 13.7751 21.185 14.9465 20.3454 15.8229C19.5057 16.6993 18.3552 17.2104 17.142 17.246Z" fill="#F8F8F8"/>
</svg>