<svg xmlns="http://www.w3.org/2000/svg" width="32" height="32" viewBox="0 0 32 32" fill="none">
  <path d="M22.6667 3.33334H5.33334C4.80291 3.33334 4.2942 3.54406 3.91913 3.91913C3.54406 4.2942 3.33334 4.80291 3.33334 5.33334V22.6667C3.33334 23.1971 3.54406 23.7058 3.91913 24.0809C4.2942 24.456 4.80291 24.6667 5.33334 24.6667H22.6667C23.1971 24.6667 23.7058 24.456 24.0809 24.0809C24.456 23.7058 24.6667 23.1971 24.6667 22.6667V5.33334C24.6667 4.80291 24.456 4.2942 24.0809 3.91913C23.7058 3.54406 23.1971 3.33334 22.6667 3.33334Z" stroke="#F8F8F8" stroke-width="2" stroke-linejoin="round"/>
  <path d="M29.3334 8.668V28C29.3334 28.3536 29.1929 28.6928 28.9428 28.9428C28.6928 29.1929 28.3536 29.3333 28 29.3333H8.66869M8.66669 13.6573L12.6667 17.3407L19.3334 10.4793" stroke="#F8F8F8" stroke-width="2" stroke-linecap="round" stroke-linejoin="round"/>
</svg>