<svg xmlns="http://www.w3.org/2000/svg" width="32" height="32" viewBox="0 0 32 32" fill="none">
  <path d="M26 30H6C5.46957 30 4.96086 29.7893 4.58579 29.4142C4.21071 29.0391 4 28.5304 4 28V16C4 15.4696 4.21071 14.9609 4.58579 14.5858C4.96086 14.2107 5.46957 14 6 14H9V16H6V28H26V16H23V14H26C26.5304 14 27.0391 14.2107 27.4142 14.5858C27.7893 14.9609 28 15.4696 28 16V28C28 28.5304 27.7893 29.0391 27.4142 29.4142C27.0391 29.7893 26.5304 30 26 30Z" fill="#F8F8F8"/>
  <path d="M13 20H19V22H13V20ZM20.59 8.59L17 12.17V2H15V12.17L11.41 8.59L10 10L16 16L22 10L20.59 8.59Z" fill="#F8F8F8"/>
</svg>