<svg xmlns="http://www.w3.org/2000/svg" width="31" height="32" viewBox="0 0 31 32" fill="none">
  <path d="M12 6H10C9.46957 6 8.96086 6.21071 8.58579 6.58579C8.21071 6.96086 8 7.46957 8 8V24C8 24.5304 8.21071 25.0391 8.58579 25.4142C8.96086 25.7893 9.46957 26 10 26H12C12.5304 26 13.0391 25.7893 13.4142 25.4142C13.7893 25.0391 14 24.5304 14 24V8C14 7.46957 13.7893 6.96086 13.4142 6.58579C13.0391 6.21071 12.5304 6 12 6ZM22 6H20C19.4696 6 18.9609 6.21071 18.5858 6.58579C18.2107 6.96086 18 7.46957 18 8V24C18 24.5304 18.2107 25.0391 18.5858 25.4142C18.9609 25.7893 19.4696 26 20 26H22C22.5304 26 23.0391 25.7893 23.4142 25.4142C23.7893 25.0391 24 24.5304 24 24V8C24 7.46957 23.7893 6.96086 23.4142 6.58579C23.0391 6.21071 22.5304 6 22 6Z" fill="#F8F8F8"/>
</svg>