<svg xmlns="http://www.w3.org/2000/svg" width="44" height="44" viewBox="0 0 44 44" fill="none">
  <path d="M38.5 14.4375H30.9719L32.2798 7.24453C32.3778 6.70618 32.258 6.15095 31.9466 5.70098C31.6352 5.25101 31.1579 4.94316 30.6195 4.84516C30.0812 4.74715 29.526 4.86702 29.076 5.17839C28.626 5.48976 28.3182 5.96712 28.2202 6.50547L26.7781 14.4375H19.9719L21.2798 7.24453C21.3284 6.97797 21.3239 6.70446 21.2667 6.43962C21.2096 6.17477 21.1008 5.92379 20.9466 5.70098C20.7924 5.47818 20.5959 5.28793 20.3682 5.14108C20.1405 4.99424 19.8861 4.89369 19.6195 4.84516C19.353 4.79663 19.0795 4.80108 18.8146 4.85826C18.5498 4.91543 18.2988 5.02421 18.076 5.17839C17.8532 5.33256 17.6629 5.52911 17.5161 5.75681C17.3692 5.98451 17.2687 6.23891 17.2202 6.50547L15.7781 14.4375H8.25C7.70299 14.4375 7.17839 14.6548 6.79159 15.0416C6.4048 15.4284 6.1875 15.953 6.1875 16.5C6.1875 17.047 6.4048 17.5716 6.79159 17.9584C7.17839 18.3452 7.70299 18.5625 8.25 18.5625H15.0288L13.7792 25.4375H5.5C4.95299 25.4375 4.42839 25.6548 4.04159 26.0416C3.6548 26.4284 3.4375 26.953 3.4375 27.5C3.4375 28.047 3.6548 28.5716 4.04159 28.9584C4.42839 29.3452 4.95299 29.5625 5.5 29.5625H13.0281L11.7202 36.7555C11.6705 37.0225 11.6742 37.2968 11.7308 37.5625C11.7875 37.8281 11.8961 38.08 12.0504 38.3036C12.2046 38.5272 12.4015 38.7181 12.6298 38.8653C12.8581 39.0126 13.1132 39.1133 13.3805 39.1617C13.5026 39.1819 13.6263 39.1906 13.75 39.1875C14.233 39.1872 14.7005 39.0174 15.0712 38.7077C15.4418 38.398 15.692 37.9681 15.7781 37.4928L17.2219 29.5625H24.0281L22.7202 36.7555C22.6705 37.0225 22.6742 37.2968 22.7308 37.5625C22.7875 37.8281 22.8961 38.08 23.0504 38.3036C23.2046 38.5272 23.4015 38.7181 23.6298 38.8653C23.8581 39.0126 24.1132 39.1133 24.3805 39.1617C24.5028 39.1849 24.6272 39.1964 24.7517 39.1961C25.2347 39.1958 25.7023 39.026 26.0729 38.7163C26.4435 38.4066 26.6937 37.9767 26.7798 37.5014L28.2219 29.5625H35.75C36.297 29.5625 36.8216 29.3452 37.2084 28.9584C37.5952 28.5716 37.8125 28.047 37.8125 27.5C37.8125 26.953 37.5952 26.4284 37.2084 26.0416C36.8216 25.6548 36.297 25.4375 35.75 25.4375H28.9712L30.2208 18.5625H38.5C39.047 18.5625 39.5716 18.3452 39.9584 17.9584C40.3452 17.5716 40.5625 17.047 40.5625 16.5C40.5625 15.953 40.3452 15.4284 39.9584 15.0416C39.5716 14.6548 39.047 14.4375 38.5 14.4375ZM24.7792 25.4375H17.9712L19.2208 18.5625H26.0288L24.7792 25.4375Z" fill="#F8F8F8"/>
</svg>