<svg xmlns="http://www.w3.org/2000/svg" width="44" height="44" viewBox="0 0 44 44" fill="none">
  <path fill-rule="evenodd" clip-rule="evenodd" d="M32.395 19.6873C32.0083 19.301 31.4841 19.0841 30.9375 19.0841C30.3909 19.0841 29.8667 19.301 29.48 19.6873L24.0625 25.1047V4.8125C24.0625 4.26549 23.8452 3.74089 23.4584 3.35409C23.0716 2.9673 22.547 2.75 22 2.75C21.453 2.75 20.9284 2.9673 20.5416 3.35409C20.1548 3.74089 19.9375 4.26549 19.9375 4.8125V25.1047L14.52 19.6873C14.129 19.3229 13.6119 19.1246 13.0776 19.134C12.5432 19.1434 12.0334 19.3599 11.6555 19.7378C11.2777 20.1157 11.0612 20.6255 11.0518 21.1598C11.0423 21.6941 11.2407 22.2113 11.605 22.6022L20.5425 31.5397L22 33L23.4575 31.5425L32.395 22.605C32.5867 22.4135 32.7387 22.186 32.8424 21.9357C32.9462 21.6854 32.9996 21.4171 32.9996 21.1461C32.9996 20.8752 32.9462 20.6069 32.8424 20.3565C32.7387 20.1062 32.5867 19.8788 32.395 19.6873ZM6.875 26.8125C6.875 26.5416 6.82165 26.2734 6.718 26.0232C6.61435 25.773 6.46243 25.5456 6.27091 25.3541C6.07939 25.1626 5.85202 25.0107 5.60178 24.907C5.35155 24.8033 5.08335 24.75 4.8125 24.75C4.54165 24.75 4.27345 24.8033 4.02322 24.907C3.77298 25.0107 3.54561 25.1626 3.35409 25.3541C3.16257 25.5456 3.01065 25.773 2.907 26.0232C2.80335 26.2734 2.75 26.5416 2.75 26.8125V35.75C2.75 37.2087 3.32946 38.6076 4.36091 39.6391C5.39236 40.6705 6.79131 41.25 8.25 41.25H35.75C37.2087 41.25 38.6076 40.6705 39.6391 39.6391C40.6705 38.6076 41.25 37.2087 41.25 35.75V26.8125C41.25 26.2655 41.0327 25.7409 40.6459 25.3541C40.2591 24.9673 39.7345 24.75 39.1875 24.75C38.6405 24.75 38.1159 24.9673 37.7291 25.3541C37.3423 25.7409 37.125 26.2655 37.125 26.8125V35.75C37.125 36.1147 36.9801 36.4644 36.7223 36.7223C36.4644 36.9801 36.1147 37.125 35.75 37.125H8.25C7.88533 37.125 7.53559 36.9801 7.27773 36.7223C7.01987 36.4644 6.875 36.1147 6.875 35.75V26.8125Z" fill="#F8F8F8"/>
</svg>