<svg xmlns="http://www.w3.org/2000/svg" width="44" height="44" viewBox="0 0 44 44" fill="none">
  <path d="M36.4375 6.875C36.4375 7.42201 36.2202 7.94661 35.8334 8.33341C35.4466 8.7202 34.922 8.9375 34.375 8.9375H29.3408C28.5349 8.93617 27.7541 9.21805 27.1349 9.7339C26.5157 10.2498 26.0974 10.9668 25.9531 11.7597L24.4716 19.9375H31.625C32.172 19.9375 32.6966 20.1548 33.0834 20.5416C33.4702 20.9284 33.6875 21.453 33.6875 22C33.6875 22.547 33.4702 23.0716 33.0834 23.4584C32.6966 23.8452 32.172 24.0625 31.625 24.0625H23.7188L22.0962 32.9777C21.7796 34.7196 20.8618 36.2952 19.5028 37.4299C18.1438 38.5647 16.4297 39.1867 14.6592 39.1875H9.625C9.07799 39.1875 8.55339 38.9702 8.16659 38.5834C7.7798 38.1966 7.5625 37.672 7.5625 37.125C7.5625 36.578 7.7798 36.0534 8.16659 35.6666C8.55339 35.2798 9.07799 35.0625 9.625 35.0625H14.6592C15.4651 35.0638 16.2459 34.7819 16.8651 34.2661C17.4843 33.7502 17.9026 33.0332 18.0469 32.2403L19.5284 24.0625H12.375C11.828 24.0625 11.3034 23.8452 10.9166 23.4584C10.5298 23.0716 10.3125 22.547 10.3125 22C10.3125 21.453 10.5298 20.9284 10.9166 20.5416C11.3034 20.1548 11.828 19.9375 12.375 19.9375H20.2812L21.9038 11.0223C22.2204 9.28042 23.1382 7.70481 24.4972 6.57006C25.8562 5.4353 27.5703 4.81332 29.3408 4.8125H34.375C34.922 4.8125 35.4466 5.0298 35.8334 5.41659C36.2202 5.80339 36.4375 6.32799 36.4375 6.875Z" fill="#F8F8F8"/>
</svg>