<svg xmlns="http://www.w3.org/2000/svg" width="44" height="44" viewBox="0 0 44 44" fill="none">
  <path fill-rule="evenodd" clip-rule="evenodd" d="M17.3734 12.54C16.1612 13.4486 15.6134 14.5376 15.6134 15.554C15.6134 16.5726 16.1612 17.6616 17.3734 18.5724C18.5878 19.4832 20.3654 20.1124 22.4224 20.1124C23.0059 20.1124 23.5655 20.3442 23.9781 20.7568C24.3907 21.1693 24.6224 21.7289 24.6224 22.3124C24.6224 22.8959 24.3907 23.4555 23.9781 23.868C23.5655 24.2806 23.0059 24.5124 22.4224 24.5124C19.5052 24.5124 16.7794 23.628 14.7334 22.0924C12.6874 20.5568 11.2134 18.2688 11.2134 15.5562C11.2134 12.8414 12.6874 10.5534 14.7334 9.0178C16.7794 7.4844 19.5074 6.6 22.4224 6.6C26.939 6.6 31.2092 8.7626 32.9076 12.364C33.0309 12.6255 33.1014 12.9086 33.1152 13.1973C33.1289 13.4861 33.0857 13.7747 32.988 14.0467C32.8902 14.3187 32.7398 14.5688 32.5454 14.7827C32.351 14.9966 32.1164 15.1701 31.8549 15.2933C31.5935 15.4165 31.3103 15.487 31.0216 15.5008C30.7329 15.5146 30.4443 15.4714 30.1723 15.3736C29.9003 15.2759 29.6502 15.1255 29.4363 14.9311C29.2224 14.7367 29.0489 14.5021 28.9256 14.2406C28.1556 12.5972 25.7532 11 22.4246 11C20.3676 11 18.5878 11.6292 17.3734 12.54Z" fill="#F8F8F8"/>
  <path fill-rule="evenodd" clip-rule="evenodd" d="M26.7454 32.0826C27.9576 31.174 28.5032 30.085 28.5032 29.0686C28.5032 28.05 27.9576 26.9588 26.7432 26.0502C25.531 25.1394 23.7512 24.5102 21.6964 24.5102C21.1129 24.5102 20.5534 24.2784 20.1408 23.8658C19.7282 23.4533 19.4964 22.8937 19.4964 22.3102C19.4964 21.7267 19.7282 21.1671 20.1408 20.7546C20.5534 20.342 21.1129 20.1102 21.6964 20.1102C24.6136 20.1102 27.3394 20.9946 29.3854 22.5302C31.4314 24.0658 32.9032 26.3538 32.9032 29.0664C32.9032 31.779 31.4314 34.0692 29.3832 35.6026C27.3372 37.1382 24.6136 38.0226 21.6964 38.0226C17.1798 38.0226 12.9074 35.86 11.2112 32.2564C10.9624 31.7286 10.9334 31.1237 11.1306 30.5745C11.3278 30.0254 11.7351 29.5771 12.2628 29.3282C12.7906 29.0793 13.3956 29.0503 13.9447 29.2476C14.4939 29.4448 14.9422 29.852 15.191 30.3798C15.9654 32.0254 18.3678 33.6226 21.6964 33.6226C23.7534 33.6226 25.531 32.9934 26.7454 32.0826ZM22 2.2C22.5835 2.2 23.1431 2.43179 23.5557 2.84437C23.9682 3.25695 24.2 3.81652 24.2 4.4V6.6C24.2 7.18348 23.9682 7.74306 23.5557 8.15564C23.1431 8.56822 22.5835 8.8 22 8.8C21.4165 8.8 20.857 8.56822 20.4444 8.15564C20.0318 7.74306 19.8 7.18348 19.8 6.6V4.4C19.8 3.81652 20.0318 3.25695 20.4444 2.84437C20.857 2.43179 21.4165 2.2 22 2.2Z" fill="#F8F8F8"/>
  <path fill-rule="evenodd" clip-rule="evenodd" d="M22 35.2C22.5835 35.2 23.1431 35.4318 23.5557 35.8444C23.9683 36.2569 24.2 36.8165 24.2 37.4V39.6C24.2 40.1835 23.9683 40.7431 23.5557 41.1556C23.1431 41.5682 22.5835 41.8 22 41.8C21.4166 41.8 20.857 41.5682 20.4444 41.1556C20.0318 40.7431 19.8 40.1835 19.8 39.6V37.4C19.8 36.8165 20.0318 36.2569 20.4444 35.8444C20.857 35.4318 21.4166 35.2 22 35.2Z" fill="#F8F8F8"/>
</svg>