<svg xmlns="http://www.w3.org/2000/svg" width="44" height="44" viewBox="0 0 44 44" fill="none">
  <path d="M17.4735 22.11L4.34776 35.2357C4.15086 35.4261 3.99384 35.6538 3.88587 35.9054C3.7779 36.1571 3.72113 36.4278 3.71888 36.7016C3.71663 36.9755 3.76894 37.2471 3.87277 37.5005C3.97659 37.7539 4.12985 37.9841 4.32359 38.1777C4.51734 38.3712 4.74769 38.5243 5.00121 38.6279C5.25473 38.7315 5.52634 38.7835 5.8002 38.781C6.07405 38.7785 6.34467 38.7215 6.59625 38.6133C6.84783 38.5051 7.07534 38.3478 7.26551 38.1507L21.8488 23.5675C22.235 23.1808 22.4519 22.6566 22.4519 22.11C22.4519 21.5634 22.235 21.0392 21.8488 20.6525L7.26551 6.06649C6.87634 5.69097 6.35525 5.48332 5.81447 5.48828C5.27369 5.49323 4.75649 5.71038 4.37426 6.09297C3.99204 6.47556 3.77537 6.99296 3.77093 7.53375C3.76648 8.07453 3.97462 8.59543 4.35051 8.98424L17.4735 22.11ZM24.0625 31.625C23.5155 31.625 22.9909 31.8423 22.6041 32.2291C22.2173 32.6159 22 33.1405 22 33.6875C22 34.2345 22.2173 34.7591 22.6041 35.1459C22.9909 35.5327 23.5155 35.75 24.0625 35.75H39.1875C39.7345 35.75 40.2591 35.5327 40.6459 35.1459C41.0327 34.7591 41.25 34.2345 41.25 33.6875C41.25 33.1405 41.0327 32.6159 40.6459 32.2291C40.2591 31.8423 39.7345 31.625 39.1875 31.625H24.0625Z" fill="#F8F8F8"/>
</svg>